Coordinates
version=1
nRows=29
nColumns=24
inDegrees=yes

Units are S.I. units (second, meters, Newtons, ...)
Angles are in degrees.

endheader
time	pelvis_tilt	pelvis_list	pelvis_rotation	pelvis_tx	pelvis_ty	pelvis_tz	hip_flexion_r	hip_adduction_r	hip_rotation_r	knee_angle_r	ankle_angle_r	subtalar_angle_r	mtp_angle_r	hip_flexion_l	hip_adduction_l	hip_rotation_l	knee_angle_l	ankle_angle_l	subtalar_angle_l	mtp_angle_l	lumbar_extension	lumbar_bending	lumbar_rotation
      0.66200000	     -2.34532867	      9.00846115	      2.58550629	     -0.02082963	      0.95983682	      0.26587031	     30.29723302	    -10.00969125	     -1.42856597	      1.51142896	      3.70892220	     -5.38432149	      5.77706086	    -23.99677768	     11.78135356	     10.47310946	      3.65819014	      9.74799498	     -5.94524567	      3.61779413	    -10.30777048	     -0.35918726	    -13.13158327
      0.66616667	     -2.45159953	      8.87543011	      2.60270479	     -0.01493526	      0.95910745	      0.26628154	     30.45844425	     -9.82312569	     -0.97595817	      0.89759488	      3.59601531	     -5.73224325	      5.77872389	    -24.05750897	     11.61329919	     10.36970928	      3.32563559	      9.67772925	     -5.85573034	      3.62950588	    -10.17705783	     -0.15711298	    -13.10807027
      0.67033333	     -2.56637319	      8.74822186	      2.63031895	     -0.00901479	      0.95841423	      0.26671047	     30.60920143	     -9.64072992	     -0.49096120	      0.29788184	      3.25440052	     -6.30296939	      5.77987707	    -24.07344789	     11.45187629	     10.19418333	      2.91497072	      9.69046340	     -5.60395779	      3.68634450	    -10.01246273	      0.01317271	    -13.05404987
      0.67450000	     -2.67116518	      8.58868164	      2.64244234	     -0.00303430	      0.95775561	      0.26716655	     30.75881349	     -9.41759457	     -0.04730387	     -0.35165330	      2.94171180	     -6.76454690	      5.78792905	    -24.09231215	     11.26351503	      9.99509778	      2.49766250	      9.66793574	     -5.38082476	      3.77864520	     -9.86848613	      0.23791949	    -12.99983920
      0.67866667	     -2.78753800	      8.41542506	      2.65583793	      0.00299623	      0.95711426	      0.26763714	     30.92215834	     -9.17813344	      0.36721295	     -1.02821301	      2.57509456	     -7.21115940	      5.80090064	    -24.09203430	     11.06233089	      9.80633865	      2.06824066	      9.61906559	     -5.19096105	      3.90062527	     -9.70773673	      0.47038296	    -12.94528058
      0.68283333	     -2.90172446	      8.22747556	      2.66134357	      0.00907389	      0.95650333	      0.26812833	     31.08746805	     -8.91754094	      0.75869175	     -1.72841755	      2.14987075	     -7.65867072	      5.82176451	    -24.08094450	     10.85074093	      9.60378116	      1.61410555	      9.55117822	     -5.01361432	      4.06271559	     -9.54564147	      0.72654624	    -12.88223679
      0.68700000	     -3.01764537	      8.02761901	      2.66392250	      0.01519607	      0.95592243	      0.26863050	     31.25722781	     -8.64216093	      1.11776151	     -2.44638716	      1.67147041	     -8.09453171	      5.85033041	    -24.05804656	     10.62963812	      9.39668019	      1.14412196	      9.45726496	     -4.85160852	      4.26133763	     -9.37072413	      0.99706351	    -12.81813408
      0.69116667	     -3.13972115	      7.81248652	      2.66316100	      0.02137108	      0.95535877	      0.26914464	     31.43795938	     -8.34878234	      1.44372557	     -3.18374197	      1.14664685	     -8.51824302	      5.88778203	    -24.01831181	     10.39633442	      9.17917524	      0.65498847	      9.33682701	     -4.71458662	      4.49694844	     -9.18802013	      1.28737790	    -12.74944137
      0.69533333	     -3.25957184	      7.58977787	      2.66036775	      0.02756987	      0.95483311	      0.26968614	     31.61744030	     -8.04408466	      1.75589212	     -3.92817925	      0.56265626	     -8.97327759	      5.94895557	    -23.95763896	     10.15673065	      8.93926294	      0.12223972	      9.20797237	     -4.56583673	      4.84259337	     -9.02348766	      1.58314795	    -12.67671779
      0.69950000	     -3.39001995	      7.35758626	      2.64972321	      0.03383928	      0.95431395	      0.27023603	     31.82569018	     -7.72764938	      2.00508718	     -4.71487819	     -0.03675299	     -9.35221831	      6.00894594	    -23.89783532	      9.90952323	      8.73986865	     -0.38225860	      9.01936280	     -4.46244660	      5.17137801	     -8.81384225	      1.88864474	    -12.60428266
      0.70366667	     -3.50428339	      7.11901105	      2.63637131	      0.04013343	      0.95385498	      0.27079180	     32.01671823	     -7.40422856	      2.23006076	     -5.50467023	     -0.67001081	     -9.75237955	      6.08552819	    -23.82886185	      9.65877841	      8.50777975	     -0.93714586	      8.81247396	     -4.36386931	      5.57399614	     -8.62082539	      2.21565170	    -12.52696314
      0.70783333	     -3.60616986	      6.86728256	      2.60579479	      0.04647291	      0.95341503	      0.27137276	     32.22636002	     -7.06402229	      2.37796837	     -6.36355862	     -1.21884904	     -9.98203175	      7.10933177	    -23.74017866	      9.39882145	      8.13835001	     -1.54340425	      8.54524381	     -4.15822623	     10.29686007	     -8.46383961	      2.55100348	    -12.44095292
      0.71200000	     -3.72376265	      6.60972188	      2.58773940	      0.05284873	      0.95301276	      0.27195130	     32.43296295	     -6.72251955	      2.52814873	     -7.18713346	     -1.88053686	    -10.33211022	      7.11123866	    -23.67040331	      9.13030062	      8.01644799	     -2.08199717	      8.19836206	     -4.26330264	     10.34982730	     -8.28151604	      2.89090186	    -12.38632406
      0.71616667	     -3.83182827	      6.36449690	      2.56334645	      0.05924402	      0.95264516	      0.27253782	     32.64559315	     -6.39111056	      2.66319328	     -8.04695302	     -2.51040103	    -10.69502787	      7.12649826	    -23.57534368	      8.87800417	      7.81376545	     -2.69231554	      7.87944793	     -4.25705718	     10.47166886	     -8.08741736	      3.22818483	    -12.31208789
      0.72033333	     -3.91415428	      6.10101370	      2.52047564	      0.06570009	      0.95233135	      0.27312246	     32.84672070	     -6.04184933	      2.72634157	     -8.94903516	     -3.02689992	    -10.86096391	      7.13514582	    -23.50383650	      8.61360903	      7.59583037	     -3.30129821	      7.47179997	     -4.29219530	     10.54955767	     -7.93183511	      3.60400526	    -12.24779929
      0.72450000	     -4.01075275	      5.84787636	      2.47850858	      0.07217026	      0.95203171	      0.27374105	     33.07289150	     -5.69975541	      2.78502472	     -9.87736531	     -3.54638215	    -11.11256258	      7.14694422	    -23.39242077	      8.35860205	      7.37536380	     -3.95646209	      7.06405664	     -4.30655702	     10.65977430	     -7.75029466	      3.94874205	    -12.17634648
      0.72866667	     -4.13579310	      5.60779044	      2.45080488	      0.07862068	      0.95172686	      0.27439487	     33.32297734	     -5.36883842	      2.88629922	    -10.79527369	     -4.12889537	    -11.56473497	      7.19587493	    -23.20681774	      8.10963523	      7.13244097	     -4.70066915	      6.74125987	     -4.18885604	     11.04538510	     -7.55829245	      4.24945046	    -12.09677788
      0.73283333	     -4.17576944	      5.33744329	      2.38720320	      0.08516312	      0.95155568	      0.27502241	     33.49938201	     -5.00885955	      2.88193768	    -11.76824519	     -4.47408285	    -11.67379531	      7.21338703	    -23.13541278	      7.84114598	      6.89864894	     -5.37850674	      6.20178532	     -4.23956164	     11.19101967	     -7.44962832	      4.63758539	    -12.04122134
      0.73700000	     -4.25794401	      5.06471008	      2.35553500	      0.09170259	      0.95136938	      0.27566160	     33.71367763	     -4.66030247	      2.84804123	    -12.73727940	     -4.87544122	    -11.88923731	      7.93177713	    -22.95599796	      7.55179285	      6.57653876	     -6.17140221	      5.67820007	     -4.12275974	     17.31745892	     -7.30106994	      4.98829590	    -11.92697371
      0.74116667	     -4.28056647	      4.82834675	      2.27177050	      0.09824564	      0.95125997	      0.27634479	     33.89062052	     -4.31833617	      2.88207636	    -13.76333984	     -5.09000202	    -12.07805810	      7.93049932	    -22.86501825	      7.32372218	      6.36499486	     -6.91428952	      5.07174685	     -4.22754060	     17.33789484	     -7.20821201	      5.32924442	    -11.90318589
      0.74533333	     -4.36895483	      4.59159032	      2.20984338	      0.10479127	      0.95111306	      0.27702701	     34.13145345	     -3.98551540	      2.89549882	    -14.78717739	     -5.32789185	    -12.29925097	      7.92835098	    -22.66254917	      7.08985027	      6.16572229	     -7.73733283	      4.49870857	     -4.27113194	     17.48332731	     -7.04802521	      5.64445409	    -11.85237770
      0.74950000	     -4.37793589	      4.32970179	      2.13538957	      0.11138157	      0.95110748	      0.27771786	     34.27316088	     -3.62659678	      2.88241547	    -15.80309597	     -5.40767980	    -12.44301081	      7.92693649	    -22.53741367	      6.82705183	      5.93962723	     -8.55948317	      3.82497504	     -4.31557707	     17.56919600	     -6.98080275	      6.01020276	    -11.80699264
      0.75366667	     -4.38908616	      4.08689483	      2.05666250	      0.11796280	      0.95112528	      0.27841672	     34.42049989	     -3.28342830	      2.87555670	    -16.83251686	     -5.43449102	    -12.59218519	      7.92377755	    -22.37829105	      6.58529338	      5.70875418	     -9.43858564	      3.13601773	     -4.35146042	     17.68180865	     -6.89349652	      6.35790357	    -11.75720484
      0.75783333	     -4.41312331	      3.82680534	      1.99369339	      0.12454153	      0.95116934	      0.27915569	     34.56816277	     -2.92795645	      2.84732616	    -17.84774864	     -5.44273419	    -12.73055695	      7.62698743	    -22.15468301	      6.30310726	      5.36558166	    -10.39295199	      2.38213101	     -4.20974714	     23.01875714	     -6.81093126	      6.69250672	    -11.72590335
      0.76200000	     -4.39542010	      3.58534224	      1.89693373	      0.13111109	      0.95127706	      0.27990666	     34.67226816	     -2.56914453	      2.87899851	    -18.87333293	     -5.28091687	    -12.88805138	      7.62642072	    -21.98342964	      6.06576248	      5.15444842	    -11.33803185	      1.62487012	     -4.31615250	     23.03927645	     -6.76808607	      7.03451488	    -11.67916845
      0.76616667	     -4.38428381	      3.34533002	      1.80796239	      0.13767757	      0.95142168	      0.28066370	     34.77205221	     -2.21597142	      2.89186466	    -19.88613358	     -5.08308971	    -13.00833604	      7.62102167	    -21.77522614	      5.82185689	      4.93003978	    -12.32635767	      0.80603193	     -4.35526569	     23.09312858	     -6.72238980	      7.35946117	    -11.63785031
      0.77033333	     -4.36701639	      3.10623823	      1.71657804	      0.14423105	      0.95160001	      0.28144384	     34.85356899	     -1.85829283	      2.91406977	    -20.88426139	     -4.81365028	    -13.11804128	      7.61046886	    -21.54552657	      5.57564463	      4.69909465	    -13.35873546	     -0.03601593	     -4.36436745	     23.17999775	     -6.69204020	      7.67822866	    -11.60509413
      0.77450000	     -4.33664524	      2.87188048	      1.62384747	      0.15076221	      0.95182494	      0.28223431	     34.90860250	     -1.50340298	      2.94017611	    -21.86484846	     -4.47704879	    -13.21342309	      7.59257166	    -21.29679860	      5.32920464	      4.45097617	    -14.44299390	     -0.90710039	     -4.34745606	     23.30499720	     -6.67044134	      7.99302633	    -11.57817539
      0.77866667	     -4.30596157	      2.63850510	      1.52905555	      0.15727191	      0.95207509	      0.28304641	     34.94945931	     -1.14480244	      2.96976801	    -22.82393520	     -4.08134694	    -13.28329509	      7.55984216	    -21.01842339	      5.07938527	      4.19261172	    -15.57320339	     -1.80076588	     -4.30405245	     23.49968603	     -6.65620733	      8.29751568	    -11.55926149
